<?xml version="1.0" encoding="UTF-8"?>
<svg width="129px" height="98px" viewBox="0 0 129 98" version="1.1" xmlns="http://www.w3.org/2000/svg" xmlns:xlink="http://www.w3.org/1999/xlink">
    <!-- Generator: Sketch 59.1 (86144) - https://sketch.com -->
    <title>tape</title>
    <desc>Created with Sketch.</desc>
    <g id="Page-1" stroke="none" stroke-width="1" fill="none" fill-rule="evenodd">
        <g id="50-Color-Stationery-Icons" transform="translate(-473.000000, -2436.000000)">
            <g id="tape" transform="translate(473.500000, 2436.750000)">
                <rect id="Rectangle-path" fill="#B3B3B3" x="84.3475" y="40.8505" width="41.10275" height="10.687"></rect>
                <path d="M109.64,51.53825 C108.00625,65.99325 95.7445,77.22825 80.85275,77.22825 C75.25225,77.22825 70.026,75.63525 65.594,72.884 C62.593,73.9645 59.3585,74.55675 55.985,74.55675 C40.32125,74.55675 27.62325,61.85875 27.62325,46.195 C27.62325,30.53125 40.32125,17.83325 55.985,17.83325 C61.01525,17.83325 65.73625,19.1485 69.8325,21.44525 C70.14675,21.316 70.46275,21.19075 70.78225,21.07225 L70.78225,8.61675 C64.11775,4.80625 56.40225,2.62475 48.17525,2.62475 C22.977,2.625 2.54975,23.05175 2.54975,48.25 C2.54975,73.44825 22.977,93.875 48.17475,93.875 L88.4565,93.875 C108.8875,93.875 125.45,77.3125 125.45,56.88175 L125.45,51.53825 L109.64,51.53825 L109.64,51.53825 Z" id="Shape" fill="#E8655A"></path>
                <path d="M51.8745,48.25 C51.8745,58.65375 57.36025,67.77275 65.59375,72.884 C76.5275,68.94675 84.3465,58.48525 84.3465,46.195 C84.3465,35.5615 78.49125,26.30075 69.83225,21.44525 C59.2945,25.78225 51.8745,36.14825 51.8745,48.25 L51.8745,48.25 Z" id="Shape" fill="#E6E6E6"></path>
                <path d="M27.623,46.19475 C27.623,61.8585 40.321,74.5565 55.98475,74.5565 C59.35825,74.5565 62.5925,73.9645 65.59375,72.88375 C57.36025,67.77275 51.8745,58.65375 51.8745,48.24975 C51.8745,36.148 59.29475,25.782 69.83225,21.445 C65.736,19.14825 61.015,17.833 55.98475,17.833 C40.321,17.83325 27.623,30.53125 27.623,46.19475 L27.623,46.19475 Z" id="Shape" fill="#FFBA57"></path>
                <circle id="Oval" fill="#B3B3B3" cx="55.84075" cy="46.46525" r="10.96425"></circle>
                <path d="M128,40.85125 C128,39.44325 126.8585,38.3015 125.45025,38.3015 L85.86425,38.3015 C83.9695,31.15375 79.5455,24.8405 73.33175,20.61925 L73.33175,8.61675 C73.33175,7.702 72.84175,6.8575 72.0475,6.40325 C64.80675,2.26325 56.55175,0.075 48.175,0.075 C21.611,0.07475 0,21.68625 0,48.25 C0,74.81375 21.611,96.42525 48.17525,96.42525 L88.457,96.42525 C110.261,96.42525 128,78.68625 128,56.882 L128,40.85125 L128,40.85125 Z M86.89625,48.9885 L86.89625,43.401 L122.9005,43.401 L122.9005,48.9885 L86.89625,48.9885 L86.89625,48.9885 Z M85.86075,54.088 L106.628,54.088 C103.95525,66.007 93.33925,74.67825 80.8525,74.67825 C77.62125,74.67825 74.4415,74.08575 71.4575,72.95 C78.57975,68.82025 83.7615,61.992 85.86075,54.088 L85.86075,54.088 Z M81.7965,46.1945 C81.7965,56.62925 75.45375,66.05225 65.8915,70.03025 C62.147,67.45325 59.13125,63.958 57.13625,59.9155 C63.982,59.261 69.3545,53.4795 69.3545,46.465 C69.3545,40.113 64.948,34.77375 59.03225,33.33525 C61.697,29.4415 65.3625,26.3185 69.656,24.3085 C77.174,29.014 81.7965,37.2865 81.7965,46.1945 L81.7965,46.1945 Z M47.42625,46.46525 C47.42625,41.82575 51.201,38.051 55.8405,38.051 C60.48,38.051 64.25475,41.82575 64.25475,46.46525 C64.25475,51.10475 60.48,54.8795 55.8405,54.8795 C51.201,54.8795 47.42625,51.10475 47.42625,46.46525 L47.42625,46.46525 Z M53.132,33.22425 C46.974,34.482 42.32675,39.941 42.32675,46.465 C42.32675,52.31475 46.0635,57.3065 51.2745,59.18325 C53.05725,64.0005 56.0035,68.3075 59.81325,71.724 C58.5515,71.912 57.27375,72.0065 55.985,72.0065 C41.75225,72.0065 30.173,60.42725 30.173,46.1945 C30.173,31.962 41.75225,20.38275 55.985,20.38275 C58.69275,20.38275 61.38075,20.81125 63.93975,21.64 C59.43425,24.50575 55.70525,28.4855 53.132,33.22425 L53.132,33.22425 Z M122.9005,56.88175 C122.9005,75.874 107.44925,91.3255 88.457,91.3255 L48.17525,91.3255 C24.42325,91.3255 5.09975,72.00175 5.09975,48.25 C5.09975,24.49825 24.42325,5.1745 48.17525,5.1745 C55.17475,5.1745 62.07725,6.882 68.2325,10.12525 L68.2325,17.81375 L68.23275,17.81675 C64.3805,16.1545 60.20275,15.28325 55.985,15.28325 C38.94025,15.28325 25.0735,29.15 25.0735,46.1945 C25.0735,63.2395 38.94025,77.106 55.985,77.106 C59.16375,77.106 62.291,76.6225 65.29925,75.6715 L65.2995,75.674 C70.03075,78.362 75.38225,79.77775 80.853,79.77775 C96.1385,79.77775 109.0765,68.88525 111.83575,54.088 L122.9005,54.088 L122.9005,56.88175 L122.9005,56.88175 Z" id="Shape" fill="#603813"></path>
                <path d="M93.06775,83.94725 L59.41025,83.94725 C58.002,83.94725 56.8605,85.089 56.8605,86.497 C56.8605,87.905 58.002,89.04675 59.41025,89.04675 L93.0675,89.04675 C94.47575,89.04675 95.61725,87.905 95.61725,86.497 C95.6175,85.089 94.476,83.94725 93.06775,83.94725 L93.06775,83.94725 Z" id="Shape" fill="#603813"></path>
                <path d="M50.231,83.94725 L48.701,83.94725 C47.29275,83.94725 46.15125,85.089 46.15125,86.497 C46.15125,87.905 47.29275,89.04675 48.701,89.04675 L50.231,89.04675 C51.63925,89.04675 52.78075,87.905 52.78075,86.497 C52.781,85.089 51.639,83.94725 50.231,83.94725 L50.231,83.94725 Z" id="Shape" fill="#603813"></path>
            </g>
        </g>
    </g>
</svg>