<?xml version="1.0" encoding="UTF-8"?>
<svg width="129px" height="129px" viewBox="0 0 129 129" version="1.1" xmlns="http://www.w3.org/2000/svg" xmlns:xlink="http://www.w3.org/1999/xlink">
    <!-- Generator: Sketch 59.1 (86144) - https://sketch.com -->
    <title>pantone</title>
    <desc>Created with Sketch.</desc>
    <g id="Page-1" stroke="none" stroke-width="1" fill="none" fill-rule="evenodd">
        <g id="50-Color-Stationery-Icons" transform="translate(-750.000000, -1577.000000)">
            <g id="pantone" transform="translate(750.750000, 1577.250000)">
                <path d="M114.85675,48.824 C120.72625,42.9545 120.72625,33.43875 114.85675,27.56925 L100.4305,13.143 C94.561,7.2735 85.04525,7.2735 79.17575,13.143 L114.85675,48.824 L114.85675,48.824 Z" id="Shape" fill="#E6E6E6"></path>
                <polygon id="Rectangle-path" fill="#FBB03B" transform="translate(48.649012, 79.350300) rotate(45.000000) translate(-48.649012, -79.350300) " points="23.4192542 39.8801785 73.8787703 39.8801785 73.8787703 118.820421 23.4192542 118.820421"></polygon>
                <polygon id="Rectangle-path" fill="#FFBA57" transform="translate(86.787910, 41.212837) rotate(135.000000) translate(-86.787910, -41.212837) " points="72.3231736 15.983079 101.252646 15.983079 101.252646 66.4425951 72.3231736 66.4425951"></polygon>
                <path d="M110.421,125.45025 C118.72125,125.45025 125.45025,118.72125 125.45025,110.421 L125.45025,90.01925 C125.45025,81.719 118.72125,74.99 110.421,74.99 L110.421,125.45025 L110.421,125.45025 Z" id="Shape" fill="#E6E6E6"></path>
                <polygon id="Rectangle-path" fill="#E83B36" points="2.54975 74.98975 81.4915 74.98975 81.4915 125.45025 2.54975 125.45025"></polygon>
                <polygon id="Rectangle-path" fill="#E8655A" points="81.49175 74.98975 110.42175 74.98975 110.42175 125.45025 81.49175 125.45025"></polygon>
                <path d="M37.98075,2.54975 L17.579,2.54975 C9.27875,2.54975 2.54975,9.27875 2.54975,17.579 L2.54975,125.45 L53.01,125.45 L53.01,17.579 C53.01,9.27875 46.2815,2.54975 37.98075,2.54975 L37.98075,2.54975 Z" id="Shape" fill="#E6E6E6"></path>
                <circle id="Oval" fill="#B3B3B3" cx="27.6245" cy="98.82775" r="4.95325"></circle>
                <path d="M116.65975,50.627 C123.514,43.773 123.514,32.62025 116.65975,25.7665 L102.2335,11.34025 C95.37925,4.4865 84.227,4.4865 77.37275,11.34025 L55.56,33.15325 L55.56,17.579 C55.56,7.886 47.67425,0 37.98075,0 L17.579,0 C7.886,0 0,7.886 0,17.579 L0,125.45 C0,126.8585 1.14175,128 2.54975,128 L110.421,128 L110.42125,128 C120.11425,127.99975 128,120.114 128,110.421 L128,90.01925 C128,80.32625 120.11425,72.4405 110.4215,72.44025 L110.42125,72.44025 L94.847,72.44025 L116.65975,50.627 L116.65975,50.627 Z M98.6275,14.94625 L113.05375,29.3725 C115.41075,31.7295 116.709,34.8635 116.709,38.1965 C116.709,40.66325 115.9985,43.0205 114.67375,45.0345 L82.96725,13.328 C87.806,10.15925 94.3795,10.698 98.6275,14.94625 L98.6275,14.94625 Z M62.3255,33.59975 L79.17575,16.74925 L111.25075,48.824 L94.40025,65.6745 L62.3255,33.59975 L62.3255,33.59975 Z M90.794,69.28075 L87.63475,72.44 L55.55975,72.44 L55.55975,40.3655 L58.71925,37.206 L90.794,69.28075 L90.794,69.28075 Z M55.56,77.53975 L78.941,77.53975 L78.941,122.9005 L55.56,122.9005 L55.56,77.53975 L55.56,77.53975 L55.56,77.53975 Z M50.46025,122.9005 L5.0995,122.9005 L5.0995,17.579 C5.0995,10.69775 10.69775,5.0995 17.579,5.0995 L37.98075,5.0995 C44.862,5.0995 50.46025,10.69775 50.46025,17.579 L50.46025,122.9005 L50.46025,122.9005 L50.46025,122.9005 Z M84.04075,77.53975 L107.87125,77.53975 L107.87125,122.9005 L84.04075,122.9005 L84.04075,77.53975 L84.04075,77.53975 Z M122.9005,110.421 C122.9005,116.4285 118.6335,121.458 112.971,122.63875 L112.971,77.8015 C118.63325,78.98175 122.9005,84.0115 122.9005,90.01925 L122.9005,110.421 L122.9005,110.421 Z" id="Shape" fill="#603813"></path>
                <path d="M27.62525,91.324 C23.488,91.324 20.12225,94.68975 20.12225,98.827 C20.12225,102.96425 23.488,106.33 27.62525,106.33 C31.7625,106.33 35.12825,102.96425 35.12825,98.827 C35.12825,94.68975 31.76225,91.324 27.62525,91.324 L27.62525,91.324 Z M27.62525,101.2305 C26.3,101.2305 25.22175,100.15225 25.22175,98.827 C25.22175,97.50175 26.3,96.4235 27.62525,96.4235 C28.9505,96.4235 30.02875,97.50175 30.02875,98.827 C30.02875,100.152 28.9505,101.2305 27.62525,101.2305 L27.62525,101.2305 Z" id="Shape" fill="#603813"></path>
                <path d="M10.70925,54.05575 C9.30125,54.05575 8.1595,55.19725 8.1595,56.6055 L8.1595,117.54575 C8.1595,118.954 9.30125,120.0955 10.70925,120.0955 C12.11725,120.0955 13.259,118.954 13.259,117.54575 L13.259,56.6055 C13.259,55.19725 12.11725,54.05575 10.70925,54.05575 L10.70925,54.05575 Z" id="Shape" fill="#603813"></path>
                <path d="M10.70925,43.3465 C9.30125,43.3465 8.1595,44.488 8.1595,45.89625 L8.1595,48.191 C8.1595,49.59925 9.30125,50.74075 10.70925,50.74075 C12.11725,50.74075 13.259,49.59925 13.259,48.191 L13.259,45.89625 C13.259,44.48825 12.11725,43.3465 10.70925,43.3465 L10.70925,43.3465 Z" id="Shape" fill="#603813"></path>
            </g>
        </g>
    </g>
</svg>