<?xml version="1.0" encoding="UTF-8"?>
<svg width="129px" height="129px" viewBox="0 0 129 129" version="1.1" xmlns="http://www.w3.org/2000/svg" xmlns:xlink="http://www.w3.org/1999/xlink">
    <!-- Generator: Sketch 59.1 (86144) - https://sketch.com -->
    <title>pen-2</title>
    <desc>Created with Sketch.</desc>
    <g id="Page-1" stroke="none" stroke-width="1" fill="none" fill-rule="evenodd">
        <g id="50-Color-Stationery-Icons" transform="translate(-183.000000, -1858.000000)">
            <g id="pen-2" transform="translate(183.500000, 1858.250000)">
                <polygon id="Shape" fill="#E6E6E6" points="24.58575 89.2935 11.827 96.56475 2.54975 125.45025 31.43525 116.173 38.7065 103.41425"></polygon>
                <polygon id="Shape" fill="#FFBA57" points="34.68275 70.968 24.583 89.29075 24.58575 89.2935 38.7065 103.41425 38.70925 103.41725 57.032 93.3175"></polygon>
                <rect id="Rectangle-path" fill="#E8655A" transform="translate(49.758376, 78.241554) rotate(225.000000) translate(-49.758376, -78.241554) " x="33.9550273" y="72.7251065" width="31.6066969" height="11.0328942"></rect>
                <polygon id="Shape" fill="#FFBA57" points="125.45025 13.72425 114.27575 2.54975 42.48375 63.167 64.833 85.51625"></polygon>
                <path d="M127.25325,11.9215 L116.07875,0.74675 C115.14175,-0.19025 113.64275,-0.25325 112.631,0.6015 L40.839,61.21875 C40.78725,61.26225 40.7395,61.3095 40.692,61.35675 C40.686,61.36075 40.681,61.364 40.681,61.364 L32.88,69.165 C32.88,69.165 32.87875,69.1685 32.8765,69.17425 C32.7115,69.3405 32.56575,69.5275 32.45,69.73725 L22.69325,87.4375 L10.56475,94.34925 C10.0105,94.66525 9.5945,95.1775 9.3995,95.78475 L0.12225,124.6705 C-0.17,125.58025 0.07125,126.5775 0.747,127.25325 C1.2325,127.739 1.884,128 2.55,128 C2.8105,128 3.0735,127.96 3.3295,127.87775 L32.215,118.60075 C32.8225,118.40575 33.33475,117.98975 33.6505,117.4355 L40.56225,105.307 L58.2625,95.55025 C58.4695,95.436 58.65425,95.29275 58.81875,95.1305 C58.82875,95.124 58.8345,95.12 58.8345,95.12 L66.6355,87.319 C66.6355,87.319 66.6365,87.31625 66.6375,87.31375 C66.68675,87.2645 66.7355,87.21475 66.7805,87.16125 L127.3985,15.3695 C128.25325,14.357 128.19025,12.8585 127.25325,11.9215 L127.25325,11.9215 Z M39.157,100.259 L27.741,88.843 L35.278,75.16975 L52.83,92.72175 L39.157,100.259 L39.157,100.259 Z M29.71125,114.04875 L11.807,119.799 L25.25525,106.35075 C26.251,105.355 26.251,103.7405 25.25525,102.7445 C24.2595,101.74875 22.645,101.74875 21.649,102.7445 L8.20075,116.19275 L13.951,98.2885 L24.15775,92.47175 L35.5275,103.8415 L29.71125,114.04875 L29.71125,114.04875 Z M57.032,89.7115 L38.28875,70.96825 L42.484,66.773 L61.22725,85.51625 L57.032,89.7115 L57.032,89.7115 Z M64.6745,81.75175 L46.24825,63.3255 L114.13025,6.01 L121.99025,13.87025 L64.6745,81.75175 L64.6745,81.75175 Z" id="Shape" fill="#603813"></path>
                <path d="M77.67675,41.97275 L54.5845,61.4705 C53.5085,62.379 53.37275,63.98775 54.28125,65.06375 C54.7855,65.66125 55.50575,65.96875 56.23075,65.96875 C56.8115,65.96875 57.39575,65.7715 57.87425,65.36725 L80.9665,45.8695 C82.0425,44.961 82.1785,43.35225 81.26975,42.27625 C80.36125,41.20025 78.753,41.06425 77.67675,41.97275 L77.67675,41.97275 Z" id="Shape" fill="#603813"></path>
                <path d="M85.67925,35.216 L83.85,36.76075 C82.774,37.66925 82.63825,39.27825 83.54675,40.354 C84.05125,40.9515 84.77125,41.25875 85.49625,41.25875 C86.077,41.25875 86.66125,41.0615 87.13975,40.65725 L88.969,39.1125 C90.045,38.204 90.18075,36.595 89.27225,35.51925 C88.364,34.44325 86.755,34.3075 85.67925,35.216 L85.67925,35.216 Z" id="Shape" fill="#603813"></path>
            </g>
        </g>
    </g>
</svg>